# xmcd CD database file
#
# Track frame offsets:
#	150
#	15825
#	29718
#	47360
#
# Disc length: 961 seconds
#
# Revision: 1
# Processed by: cddbd v1.5.1PL2 Copyright (c) Steve Scherf et al.
# Submitted via: CDex 1.60beta1-cs1
#
DISCID=2203bf04
DTITLE=Stereo Fabrication of Youth - 1979
DYEAR=2003
DGENRE=Rock
TTITLE0=Blind
TTITLE1=1979
TTITLE2=ボルテージ
TTITLE3=春夏秋冬
EXTD=YEAR: 2003
EXTT0=
EXTT1=
EXTT2=
EXTT3=
PLAYORDER=
